<svg xmlns="http://www.w3.org/2000/svg" xmlns:svg="http://www.w3.org/2000/svg" xmlns:xlink="http://www.w3.org/1999/xlink" id="svg2" width="210mm" height="297mm" version="1.1" viewBox="0 0 744.094 1052.362"><defs id="defs4"><linearGradient id="linearGradient4481"><stop style="stop-color:#fff;stop-opacity:1" id="stop4483" offset="0"/><stop style="stop-color:red;stop-opacity:0" id="stop4485" offset="1"/></linearGradient><linearGradient id="linearGradient4489" x1="-1500" x2="-1420" y1="892.362" y2="1312.362" gradientUnits="userSpaceOnUse" xlink:href="#linearGradient4481"/><filter style="color-interpolation-filters:sRGB" id="filter4520" width="1.072" height="1.072" x="-.036" y="-.036"><feGaussianBlur id="feGaussianBlur4522" stdDeviation="5.997"/></filter></defs><metadata id="metadata7"/><g id="layer1"><g id="g4498" style="fill:#000;filter:url(#filter4520)" transform="translate(1872.6543,-633.89611)"><circle id="circle4500" cx="-1500.607" cy="1160.077" r="189.974" style="opacity:1;fill:#000;fill-opacity:1;stroke:#000;stroke-width:2.84960508;stroke-linejoin:round;stroke-miterlimit:4;stroke-dasharray:none;stroke-dashoffset:0;stroke-opacity:1"/><path id="path4502" d="m -1500.5133,960.17876 c -105.4697,0 -191.864,81.64094 -199.4512,185.17384 l 109.1387,0 a 92.057918,92.057918 0 0 1 90.8164,-77.2325 92.057918,92.057918 0 0 1 90.7773,77.5645 l 0.072,0 0,-0.332 107.9102,0 c -8.6743,-90.1936 -94.5663,-185.17384 -199.2637,-185.17384 z" style="opacity:1;fill:#000;fill-opacity:1;stroke:#000;stroke-width:3;stroke-linejoin:round;stroke-miterlimit:4;stroke-dasharray:none;stroke-dashoffset:0;stroke-opacity:1"/><path id="path4504" d="m -1500.6071,1091.9356 a 68.140961,68.140961 0 0 0 -68.1406,68.1406 68.140961,68.140961 0 0 0 68.1406,68.1426 68.140961,68.140961 0 0 0 68.1407,-68.1426 68.140961,68.140961 0 0 0 -68.1407,-68.1406 z m 0,43.4903 a 24.651379,24.651379 0 0 1 24.6524,24.6503 24.651379,24.651379 0 0 1 -24.6524,24.6524 24.651379,24.651379 0 0 1 -24.6503,-24.6524 24.651379,24.651379 0 0 1 24.6503,-24.6503 z" style="opacity:1;fill:#000;fill-opacity:1;stroke:#000;stroke-width:3;stroke-linejoin:round;stroke-miterlimit:4;stroke-dasharray:none;stroke-dashoffset:0;stroke-opacity:1"/><path id="path4506" d="m -1700.5075,1165.6066 c 2.9823,107.8525 91.3447,194.3691 199.918,194.3691 108.2636,0 196.4238,-101.5605 199.8828,-194.3691 l -107.5175,0 a 92.057918,92.057918 0 0 1 -91.8614,86.4277 92.057918,92.057918 0 0 1 -91.7754,-86.4277 l -108.6465,0 z" style="opacity:1;fill:#000;fill-opacity:1;stroke:#000;stroke-width:3;stroke-linejoin:round;stroke-miterlimit:4;stroke-dasharray:none;stroke-dashoffset:0;stroke-opacity:1"/><path style="opacity:1;fill:#000;fill-opacity:1;stroke:#000;stroke-width:3;stroke-linejoin:round;stroke-miterlimit:4;stroke-dasharray:none;stroke-dashoffset:0;stroke-opacity:1" id="path4508" d="m -1500.5133,960.17876 c -105.4697,0 -191.864,81.64094 -199.4512,185.17384 l 109.1387,0 a 92.057918,92.057918 0 0 1 90.8164,-77.2325 92.057918,92.057918 0 0 1 90.7773,77.5645 l 0.072,0 0,-0.332 107.9102,0 c -8.6743,-90.1936 -94.5663,-185.17384 -199.2637,-185.17384 z"/></g><g id="g4491" transform="translate(1872.6543,-633.89613)"><circle style="opacity:1;fill:#000;fill-opacity:1;stroke:#000;stroke-width:2.84960508;stroke-linejoin:round;stroke-miterlimit:4;stroke-dasharray:none;stroke-dashoffset:0;stroke-opacity:1" id="circle4275" cx="-1500.607" cy="1160.077" r="189.974"/><path style="opacity:1;fill:red;fill-opacity:1;stroke:#000;stroke-width:3;stroke-linejoin:round;stroke-miterlimit:4;stroke-dasharray:none;stroke-dashoffset:0;stroke-opacity:1" id="path4277" d="m -1500.5133,960.17876 c -105.4697,0 -191.864,81.64094 -199.4512,185.17384 l 109.1387,0 a 92.057918,92.057918 0 0 1 90.8164,-77.2325 92.057918,92.057918 0 0 1 90.7773,77.5645 l 0.072,0 0,-0.332 107.9102,0 c -8.6743,-90.1936 -94.5663,-185.17384 -199.2637,-185.17384 z"/><path style="opacity:1;fill:#f2f2f2;fill-opacity:1;stroke:#000;stroke-width:3;stroke-linejoin:round;stroke-miterlimit:4;stroke-dasharray:none;stroke-dashoffset:0;stroke-opacity:1" id="path4279" d="m -1500.6071,1091.9356 a 68.140961,68.140961 0 0 0 -68.1406,68.1406 68.140961,68.140961 0 0 0 68.1406,68.1426 68.140961,68.140961 0 0 0 68.1407,-68.1426 68.140961,68.140961 0 0 0 -68.1407,-68.1406 z m 0,43.4903 a 24.651379,24.651379 0 0 1 24.6524,24.6503 24.651379,24.651379 0 0 1 -24.6524,24.6524 24.651379,24.651379 0 0 1 -24.6503,-24.6524 24.651379,24.651379 0 0 1 24.6503,-24.6503 z"/><path style="opacity:1;fill:#f9f9f9;fill-opacity:1;stroke:#000;stroke-width:3;stroke-linejoin:round;stroke-miterlimit:4;stroke-dasharray:none;stroke-dashoffset:0;stroke-opacity:1" id="path4281" d="m -1700.5075,1165.6066 c 2.9823,107.8525 91.3447,194.3691 199.918,194.3691 108.2636,0 196.4238,-101.5605 199.8828,-194.3691 l -107.5175,0 a 92.057918,92.057918 0 0 1 -91.8614,86.4277 92.057918,92.057918 0 0 1 -91.7754,-86.4277 l -108.6465,0 z"/><path id="path4479" d="m -1500.5133,960.17876 c -105.4697,0 -191.864,81.64094 -199.4512,185.17384 l 109.1387,0 a 92.057918,92.057918 0 0 1 90.8164,-77.2325 92.057918,92.057918 0 0 1 90.7773,77.5645 l 0.072,0 0,-0.332 107.9102,0 c -8.6743,-90.1936 -94.5663,-185.17384 -199.2637,-185.17384 z" style="opacity:1;fill:url(#linearGradient4489);fill-opacity:1;stroke:#000;stroke-width:3;stroke-linejoin:round;stroke-miterlimit:4;stroke-dasharray:none;stroke-dashoffset:0;stroke-opacity:1"/></g></g></svg>