<svg xmlns="http://www.w3.org/2000/svg" xmlns:ns1="http://sozi.baierouge.fr" xmlns:svg="http://www.w3.org/2000/svg" xmlns:xlink="http://www.w3.org/1999/xlink" id="svg3825" version="1.1" viewBox="0 0 744.09 1052.4"><g id="layer1"><path id="path11896" style="stroke-linejoin:round;color:#000;stroke:#000;stroke-linecap:round;stroke-miterlimit:2.6;stroke-width:11.382;fill:#fff" d="m505.24 519.09c51.862-12.467 85.037-31.516 85.037-52.798 0-2.5167-1.562-4.7626-2.466-7.2083 5.5317 1.3756 11.009 2.8454 17.072 2.8454 33.786 0 61.271-22.956 61.271-51.217s-27.485-51.217-61.271-51.217c-4.1404-0.00006-7.6609 1.4301-11.571 2.0866 3.4193-11.3 5.6908-22.83 5.6908-35.093 0-74.808-67.716-135.63-151.38-135.63-59.277 0-110.16 30.74-135.06 75.118-9.9469-5.5532-20.918-8.9156-32.627-8.9156-35.408-0.00006-64.873 28.484-73.98 67.151-15.544-6.1441-33.618-9.864-52.924-9.864-57.918-0.00006-104.9 31.689-104.9 70.756-0.00007 35.264 38.532 64.254 88.587 69.617-2.2434 3.8063-3.9836 7.5756-3.9836 11.571-0.00006 17.368 22.094 33.248 58.406 45.278m313.38 7.6928c0.24038-0.0546-47.917 5.9348-47.677 5.8772m-265.71-13.58c0.25676 0.085 28.746 6.2194 29.004 6.3041"/><path id="path11902" style="color:#000;stroke:#000;stroke-linecap:round;stroke-miterlimit:2.6;stroke-width:3.9291;fill:#fff" d="m138.99 349.22c0.65368-2.2394 16.597 3.4479 17.882 1.5008 1.2747-1.9315-10.41-14.182-8.5791-15.598 1.8451-1.4275 11.401 12.545 13.585 11.725 2.1666-0.81341-0.0855-17.592 2.2276-17.662 2.3318-0.0703 1.8497 16.85 4.0986 17.471 2.2309 0.61541 10.271-14.282 12.183-12.979 1.9278 1.3137-8.408 14.72-6.9533 16.543 1.4431 1.8092 16.704-5.5176 17.486-3.3392 0.78746 2.196-15.454 6.9663-15.349 9.2968 0.10409 2.3119 16.757 5.3549 16.109 7.5764-0.65367 2.2394-16.597-3.4479-17.882-1.5008-1.2747 1.9315 10.41 14.182 8.5791 15.598-1.8451 1.4275-11.401-12.545-13.585-11.725-2.1666 0.8134 0.0855 17.592-2.2276 17.662-2.3318 0.0703-1.8497-16.85-4.0986-17.471-2.2309-0.61541-10.271 14.282-12.183 12.979-1.9278-1.3137 8.408-14.72 6.9533-16.543-1.4431-1.8092-16.704 5.5176-17.486 3.3392-0.78746-2.196 15.454-6.9663 15.349-9.2968-0.10409-2.3119-16.757-5.3549-16.109-7.5764z" transform="matrix(2.8967 0 0 2.8967 -141.74 -562.66)"/><path id="path11908" style="color:#000;stroke:#000;stroke-linecap:round;stroke-miterlimit:2.6;stroke-width:3.9291;fill:#fff" d="m138.99 349.22c0.65368-2.2394 16.597 3.4479 17.882 1.5008 1.2747-1.9315-10.41-14.182-8.5791-15.598 1.8451-1.4275 11.401 12.545 13.585 11.725 2.1666-0.81341-0.0855-17.592 2.2276-17.662 2.3318-0.0703 1.8497 16.85 4.0986 17.471 2.2309 0.61541 10.271-14.282 12.183-12.979 1.9278 1.3137-8.408 14.72-6.9533 16.543 1.4431 1.8092 16.704-5.5176 17.486-3.3392 0.78746 2.196-15.454 6.9663-15.349 9.2968 0.10409 2.3119 16.757 5.3549 16.109 7.5764-0.65367 2.2394-16.597-3.4479-17.882-1.5008-1.2747 1.9315 10.41 14.182 8.5791 15.598-1.8451 1.4275-11.401-12.545-13.585-11.725-2.1666 0.8134 0.0855 17.592-2.2276 17.662-2.3318 0.0703-1.8497-16.85-4.0986-17.471-2.2309-0.61541-10.271 14.282-12.183 12.979-1.9278-1.3137 8.408-14.72 6.9533-16.543-1.4431-1.8092-16.704 5.5176-17.486 3.3392-0.78746-2.196 15.454-6.9663 15.349-9.2968-0.10409-2.3119-16.757-5.3549-16.109-7.5764z" transform="matrix(2.8967 0 0 2.8967 -85.632 -397.89)"/><path id="path11910" style="color:#000;stroke:#000;stroke-linecap:round;stroke-miterlimit:2.6;stroke-width:3.9291;fill:#fff" d="m138.99 349.22c0.65368-2.2394 16.597 3.4479 17.882 1.5008 1.2747-1.9315-10.41-14.182-8.5791-15.598 1.8451-1.4275 11.401 12.545 13.585 11.725 2.1666-0.81341-0.0855-17.592 2.2276-17.662 2.3318-0.0703 1.8497 16.85 4.0986 17.471 2.2309 0.61541 10.271-14.282 12.183-12.979 1.9278 1.3137-8.408 14.72-6.9533 16.543 1.4431 1.8092 16.704-5.5176 17.486-3.3392 0.78746 2.196-15.454 6.9663-15.349 9.2968 0.10409 2.3119 16.757 5.3549 16.109 7.5764-0.65367 2.2394-16.597-3.4479-17.882-1.5008-1.2747 1.9315 10.41 14.182 8.5791 15.598-1.8451 1.4275-11.401-12.545-13.585-11.725-2.1666 0.8134 0.0855 17.592-2.2276 17.662-2.3318 0.0703-1.8497-16.85-4.0986-17.471-2.2309-0.61541-10.271 14.282-12.183 12.979-1.9278-1.3137 8.408-14.72 6.9533-16.543-1.4431-1.8092-16.704 5.5176-17.486 3.3392-0.78746-2.196 15.454-6.9663 15.349-9.2968-0.10409-2.3119-16.757-5.3549-16.109-7.5764z" transform="matrix(2.8967 0 0 2.8967 -279.79 -397.89)"/></g><metadata/></svg>